<?xml version="1.0" encoding="utf-8"?>
<!-- Generator: Adobe Illustrator 24.2.1, SVG Export Plug-In . SVG Version: 6.00 Build 0)  -->
<svg version="1.1" id="Layer_1" xmlns="http://www.w3.org/2000/svg" xmlns:xlink="http://www.w3.org/1999/xlink" x="0px" y="0px"
	 viewBox="0 0 300 300" style="enable-background:new 0 0 300 300;" xml:space="preserve">
<style type="text/css">
	.st0{fill:none;stroke:#FFFFFF;stroke-width:5;stroke-miterlimit:10;}
	.st1{fill:#FFFFFF;}
</style>
<g>
	<polyline class="st0" points="180.87,238.82 39.77,238.82 39.77,11.24 228.2,11.24 228.2,87.94 	"/>
	<g>
		<path class="st1" d="M220.01,99.08c20.58,0,37.33,16.75,37.33,37.33s-16.75,37.33-37.33,37.33s-37.33-16.75-37.33-37.33
			S199.42,99.08,220.01,99.08 M220.01,94.08c-23.38,0-42.33,18.95-42.33,42.33s18.95,42.33,42.33,42.33s42.33-18.95,42.33-42.33
			S243.39,94.08,220.01,94.08L220.01,94.08z"/>
	</g>
	<path class="st0" d="M250.05,167.82"/>
	<polyline class="st0" points="250.05,165.54 250.05,167.82 250.05,285.24 219.55,261.12 189.97,285.24 189.97,167.82 
		189.97,165.54 	"/>
	<line class="st0" x1="52.06" y1="25.35" x2="215" y2="25.35"/>
	<line class="st0" x1="52.06" y1="49.42" x2="215" y2="49.42"/>
	<line class="st0" x1="51.6" y1="73.6" x2="214.55" y2="73.6"/>
	<line class="st0" x1="51.6" y1="97.67" x2="193.95" y2="97.67"/>
	<line class="st0" x1="52.06" y1="120.03" x2="169.49" y2="120.03"/>
	<line class="st0" x1="51.6" y1="140.96" x2="159.93" y2="140.96"/>
	<line class="st0" x1="51.15" y1="167.36" x2="159.47" y2="167.36"/>
	<line class="st0" x1="51.15" y1="196.49" x2="145.82" y2="196.49"/>
	<line class="st0" x1="51.15" y1="221.98" x2="89.38" y2="221.98"/>
</g>
</svg>
