<?xml version="1.0" encoding="utf-8"?>
<!-- Generator: Adobe Illustrator 24.2.1, SVG Export Plug-In . SVG Version: 6.00 Build 0)  -->
<svg version="1.1" id="Layer_1" xmlns="http://www.w3.org/2000/svg" xmlns:xlink="http://www.w3.org/1999/xlink" x="0px" y="0px"
	 viewBox="0 0 300 300" style="enable-background:new 0 0 300 300;" xml:space="preserve">
<style type="text/css">
	.st0{fill:none;stroke:#FFFFFF;stroke-width:5;stroke-miterlimit:10;}
</style>
<g>
	<circle class="st0" cx="46.5" cy="149.5" r="19.5"/>
	<g>
		<path class="st0" d="M129.7,250.2c-41.2-7.9-73.7-40.6-81.1-82"/>
		<path class="st0" d="M249.4,168.2c-7.6,42-40.8,75.1-82.9,82.3"/>
		<path class="st0" d="M249.4,168.2"/>
		<path class="st0" d="M249.2,130.7"/>
		<path class="st0" d="M168.2,49.8c40.9,7.8,73.2,40,81,80.9"/>
		<path class="st0" d="M130.6,49.7"/>
		<path class="st0" d="M48.8,130.6c7.9-41.1,40.5-73.4,81.7-80.9"/>
		<circle class="st0" cx="149.5" cy="47.5" r="19.5"/>
	</g>
	<circle class="st0" cx="251.5" cy="149.5" r="19.5"/>
	<circle class="st0" cx="148.1" cy="251.5" r="19.5"/>
	<path class="st0" d="M171.5,129c0,16-10.1,29-22.5,29c-5.1,0-9.7-2.1-13.5-5.8c-0.4-0.4-0.8-0.8-1.2-1.2c-4.8-5.3-7.8-13.2-7.8-22
		c0-16,10.1-29,22.5-29S171.5,113,171.5,129z"/>
	<g>
		<path class="st0" d="M136.3,154c-2,10-4,14-6,17s-29.8,5.2-32,7c-4.2,3.5-3.5,2.3-5,6c-2.9,7.1-3.1,15.2-3,15h59"/>
		<path class="st0" d="M161.8,154c2,10,4,14,6,17s29.8,5.2,32,7c4.2,3.5,3.5,2.3,5,6c2.9,7.1,3.1,15.2,3,15h-59"/>
	</g>
</g>
</svg>
