<?xml version="1.0" encoding="utf-8"?>
<!-- Generator: Adobe Illustrator 24.2.1, SVG Export Plug-In . SVG Version: 6.00 Build 0)  -->
<svg version="1.1" id="Layer_1" xmlns="http://www.w3.org/2000/svg" xmlns:xlink="http://www.w3.org/1999/xlink" x="0px" y="0px"
	 viewBox="0 0 300 300" style="enable-background:new 0 0 300 300;" xml:space="preserve">
<style type="text/css">
	.st0{fill:none;stroke:#FFFFFF;stroke-width:5;stroke-miterlimit:10;}
</style>
<path class="st0" d="M40.5,170V41.5c31-0.5,109-21.5,109-21.5"/>
<path class="st0" d="M149.5,279c-59-18-109-48.8-109-109"/>
<path class="st0" d="M257.5,170V41.5c-31-0.5-109-21.5-109-21.5"/>
<path class="st0" d="M148.5,279c59-18,109-48.8,109-109"/>
<path class="st0" d="M245.5,158"/>
<path class="st0" d="M149.5,262.8c37.3-13,69.5-31.9,85.4-61.3"/>
<path class="st0" d="M149.5,262.8"/>
<path class="st0" d="M148.5,20"/>
<path class="st0" d="M148.5,279"/>
<path class="st0" d="M55.5,114.8V56.5c22.2-0.4,68.5-11.2,93-17.4"/>
<polygon class="st0" points="151.3,206.9 85.5,157 97.5,141 147.7,179.1 211.6,96.9 227.4,109.2 "/>
</svg>
