<?xml version="1.0" encoding="utf-8"?>
<!-- Generator: Adobe Illustrator 24.2.1, SVG Export Plug-In . SVG Version: 6.00 Build 0)  -->
<svg version="1.1" id="Layer_1" xmlns="http://www.w3.org/2000/svg" xmlns:xlink="http://www.w3.org/1999/xlink" x="0px" y="0px"
	 viewBox="0 0 937 556" style="enable-background:new 0 0 937 556;" xml:space="preserve">
<style type="text/css">
	.st0{fill:#818181;stroke:#CCCCCC;stroke-width:16;stroke-miterlimit:10;}
	.st1{fill:none;stroke:#818181;stroke-width:18;stroke-miterlimit:10;}
	.st2{fill:#989898;}
	.st3{fill:#E6E6E5;}
	.st4{fill:#29abe1;}
	.st5{fill:#4E4E4E;}
	.st6{fill:#B4B4B4;}
	.st7{fill:#F3F3F3;stroke:#E6E6E5;stroke-miterlimit:10;}
	.st8{fill:#4E4E4E;stroke:#E6E6E5;stroke-miterlimit:10;}
	.st9{fill:none;stroke:#818181;stroke-width:6;stroke-miterlimit:10;}
	.st10{fill:none;stroke:#B4B4B4;stroke-width:16;stroke-miterlimit:10;}
	.st11{fill:none;stroke:#F3F3F3;stroke-width:16;stroke-miterlimit:10;}
	.st12{fill:#CCCCCC;}
	.st13{fill:#F3F3F3;}
</style>
<g>
	<rect x="8.25" y="8.13" class="st0" width="921" height="540"/>
	<line class="st1" x1="16.25" y1="547.13" x2="921.25" y2="547.13"/>
	<rect x="447.25" y="308.13" class="st2" width="28" height="62"/>
	<g>
		<path class="st3" d="M641.89,332.13H281.61c-12.9,0-23.36-10.46-23.36-23.36V75.49c0-12.9,10.46-23.36,23.36-23.36h360.28
			c12.9,0,23.36,10.46,23.36,23.36v233.28C665.25,321.67,654.79,332.13,641.89,332.13z"/>
	</g>
	<g>
		<path class="st3" d="M641.89,332.13H281.61c-12.9,0-23.36-10.46-23.36-23.36V75.49c0-12.9,10.46-23.36,23.36-23.36h360.28
			c12.9,0,23.36,10.46,23.36,23.36v233.28C665.25,321.67,654.79,332.13,641.89,332.13z"/>
	</g>
	<g>
		<path class="st4" d="M630.89,321.74H292.61c-12.9,0-23.36-10.46-23.36-23.36V86.85c0-12.9,10.46-23.36,23.36-23.36h338.28
			c12.9,0,23.36,10.46,23.36,23.36v211.53C654.25,311.29,643.79,321.74,630.89,321.74z"/>
	</g>
	<path class="st3" d="M475.25,332.13l-1.12,3.9c-0.52,1.83-2.2,3.1-4.1,3.1h-17.56c-1.91,0-3.58-1.26-4.1-3.1l-1.12-3.9"/>
	<line class="st5" x1="447.25" y1="332.13" x2="475.25" y2="332.13"/>
	<rect x="344.25" y="370.13" class="st2" width="235" height="10"/>
	<rect x="60.25" y="380.13" class="st6" width="802" height="18"/>
	<rect x="78.75" y="398.63" class="st7" width="766" height="157"/>
	<rect x="109.75" y="398.63" class="st8" width="352" height="157"/>
	<rect x="480.75" y="411.63" class="st9" width="345" height="50"/>
	<rect x="480.38" y="490.06" class="st9" width="345" height="50"/>
	<line class="st9" x1="633.25" y1="422.13" x2="677.25" y2="422.13"/>
	<line class="st9" x1="633.25" y1="501.13" x2="677.25" y2="501.13"/>
	<line class="st10" x1="929.25" y1="556.13" x2="929.25" y2="0.13"/>
	<line class="st11" x1="0.25" y1="8.13" x2="921.25" y2="8.13"/>
	<polyline class="st12" points="16.25,16.13 0.25,0.13 0.25,16.13 	"/>
	<polyline class="st13" points="921.25,16.13 937.25,0.13 921.25,0.13 	"/>
</g>
</svg>
