<?xml version="1.0" encoding="utf-8"?>
<!-- Generator: Adobe Illustrator 24.2.1, SVG Export Plug-In . SVG Version: 6.00 Build 0)  -->
<svg version="1.1" id="Layer_1" xmlns="http://www.w3.org/2000/svg" xmlns:xlink="http://www.w3.org/1999/xlink" x="0px" y="0px"
	 viewBox="0 0 595.3 841.9" style="enable-background:new 0 0 595.3 841.9;" xml:space="preserve">
<style type="text/css">
	.st0{fill:#989898;}
	.st1{fill:#E6E6E5;}
	.st2{fill:none;}
</style>
<g>
	<rect x="283.1" y="536.5" class="st0" width="28" height="62"/>
	<g>
		<path class="st1" d="M477.8,560.5H117.5c-12.9,0-23.4-10.5-23.4-23.4V303.9c0-12.9,10.5-23.4,23.4-23.4h360.3
			c12.9,0,23.4,10.5,23.4,23.4v233.3C501.1,550,490.7,560.5,477.8,560.5z"/>
	</g>
	<g>
		<path class="st1" d="M477.8,560.5H117.5c-12.9,0-23.4-10.5-23.4-23.4V303.9c0-12.9,10.5-23.4,23.4-23.4h360.3
			c12.9,0,23.4,10.5,23.4,23.4v233.3C501.1,550,490.7,560.5,477.8,560.5z"/>
	</g>
	<path class="st1" d="M311.1,560.5l-1.1,3.9c-0.5,1.8-2.2,3.1-4.1,3.1h-17.6c-1.9,0-3.6-1.3-4.1-3.1l-1.1-3.9"/>
	<line class="st2" x1="283.1" y1="560.5" x2="311.1" y2="560.5"/>
	<rect x="180.1" y="598.5" class="st0" width="235" height="10"/>
</g>
</svg>
