<?xml version="1.0" encoding="utf-8"?>
<!-- Generator: Adobe Illustrator 24.2.1, SVG Export Plug-In . SVG Version: 6.00 Build 0)  -->
<svg version="1.1" id="Layer_1" xmlns="http://www.w3.org/2000/svg" xmlns:xlink="http://www.w3.org/1999/xlink" x="0px" y="0px"
	 viewBox="0 0 73.48 190.04" style="enable-background:new 0 0 73.48 190.04;" xml:space="preserve">
<style type="text/css">
	.st0{fill:#FBC1A5;}
	.st1{fill:#F7E7D8;}
	.st2{fill:#3F3634;}
	.st3{fill:url(#SVGID_1_);}
	.st4{fill:#312625;}
	.st5{fill:#32150D;}
	.st6{fill:url(#SVGID_2_);}
	.st7{fill:url(#SVGID_3_);}
	.st8{fill:#F79E7D;}
	.st9{fill:#F04923;}
	.st10{fill:#F5876E;}
	.st11{fill:url(#SVGID_4_);}
	.st12{fill:url(#SVGID_5_);}
	.st13{fill:url(#SVGID_6_);}
	.st14{fill:url(#SVGID_7_);}
	.st15{fill:url(#SVGID_8_);}
	.st16{fill:url(#SVGID_9_);}
</style>
<g>
	<g id="XMLID_4526_">
		<path class="st0" d="M58.13,67.38c0.5,2.4,1.53,2.47,3.01,16.42c0.3,3.97,2.19,7.89,2.28,11.87c0.09,4.09-0.22,7.97,0.86,11.92
			c0.21,0.78,0.59,3.28,0.33,4.04c-0.28,0.81-1.52-0.45-1.96,0.15c-0.6,0.82-0.22,1.66-1.68,1.68c-1.14,0.02-1.49-0.28-1.62-1.64
			c-0.27,0.68-2.14,1.04-2.81,0.75c-0.67-0.29-1.02-1.17-0.71-1.84c-0.37,0.23-0.82,0.33-1.25,0.29c-0.56-0.06,0.44-3.47,0.59-3.78
			c0.66-1.31,1.56-1.8,2.92-2.27c3.83-1.31-4.5-14.5-4.13-22.49c0.14-2.95-1.79-9.59-1.82-9.71C51.64,70.46,58.13,67.38,58.13,67.38
			z"/>
	</g>
	<polygon class="st1" points="57.77,100.01 58.1,102.54 64.53,102.29 64.33,99.61 	"/>
	<path class="st2" d="M53.04,45.12c2.46,1.16,5.32,2.9,5.81,4.14c0.39,0.98,0.48,1.14,2.96,26.45l3.46,24.82l-8.66,0.65l-2.96-22.62
		L53.04,45.12z"/>
	<linearGradient id="SVGID_1_" gradientUnits="userSpaceOnUse" x1="57.8532" y1="74.0784" x2="70.7909" y2="61.6382">
		<stop  offset="0" style="stop-color:#312625;stop-opacity:0.5"/>
		<stop  offset="0.9947" style="stop-color:#312625;stop-opacity:0"/>
	</linearGradient>
	<path class="st3" d="M53.04,45.12c2.46,1.16,5.32,2.9,5.81,4.14c0.39,0.98,0.48,1.14,2.96,26.45l3.46,24.82l-8.66,0.65l-2.96-22.62
		L53.04,45.12z"/>
	<path class="st2" d="M25.59,25.63c0,0,1.44-0.08,2.06-0.84c0.62-0.76-1.41-6.97-1.41-6.97s1.93-1.66,1.95-4
		c0.03-2.33-1.52-3.54-3.92-3.39c-2.41,0.15-5.88,3.35-5.88,3.35l1.76,0.91c0,0,0.57,5.3,1.32,6.66
		C22.24,22.7,25.59,25.63,25.59,25.63z"/>
	<path class="st2" d="M20.96,15.29C21.66,18.6,24,26.77,24,26.77l2.08-2.37l-1.04-10.21L20.96,15.29z"/>
	<path class="st4" d="M29.66,181.13l0.93-4.96l5.65,0.82l-0.3,4.66c0,0-1.06,2.09-4.03,2.14C28.94,183.84,29.66,181.13,29.66,181.13
		z"/>
	<polygon class="st4" points="54.9,177.98 54.71,182.01 55.79,184.64 60.46,183.15 61.48,180.16 61.82,175.51 	"/>
	<path class="st4" d="M72.27,184.83c-1.45-0.72-6.05-2.11-9.26-4.66c-0.35-0.28-0.81-0.39-1.26-0.3c0,0-0.25,0.05-0.25,0.05
		c0,0-0.42,2.16-2.79,2.93c-1.6,0.51-3.99-0.83-3.99-0.83l-0.43,5.72H72.7c0.38-0.19,0.49-0.59,0.49-0.59S74.11,185.75,72.27,184.83
		z"/>
	<path class="st2" d="M55.8,87.07c0,0,2.84,36.27,3.12,39.57c0.28,3.3,3.76,52.4,3.76,52.4c-4.36,1.7-9.06,0.39-9.06,0.39
		l-7.62-49.5l-5.02-26.4l-1.69-0.47c0,0-0.57,32.14-0.59,31.97c-0.01-0.16-0.72,43.15-0.72,43.15c-4.22,2.13-10.09-0.17-10.09-0.17
		s-1.83-42.02-2.34-44.48c-0.51-2.46-0.65-49.59-0.65-49.59L55.8,87.07z"/>
	<path class="st4" d="M56.66,96.92c-6.22,2.15-20.29,5.37-31.75,0.67c-0.02-2.94,0.03-6.85,0.02-8.91l31.21,2.71
		C56.28,93.2,56.46,94.41,56.66,96.92z"/>
	<g id="XMLID_4524_">
		<path id="XMLID_4525_" class="st5" d="M54.77,83.79c-0.24-0.89-0.44-1.45-0.44-1.45l-27.56,1.13c0,0-0.1,0.56-0.25,1.52
			c0.14,0.19,0.25,0.33,0.25,0.33C39.08,90.36,47.98,90.36,54.77,83.79z"/>
	</g>
	<path class="st2" d="M20.71,60.36l4.83,17.75l-2.46,16.58c0,0,21.82,8.29,35.51-0.64l-2.81-37.05L20.71,60.36z"/>
	<g id="XMLID_4521_">
		<g id="XMLID_4522_">
			<path id="XMLID_4523_" class="st2" d="M52.36,44.78c2.92,1.23,7.03,3.7,3.42,12.21L54.53,83.2c0,0,1.4,4.04,0.52,4.9
				c-6.79,6.59-15.71,6.59-28.02,1.56c0,0-0.65-0.83-0.73-1.16c-0.45-1.78,1.05-6.75,1.05-6.75l-6.88-21.39
				c0,0-6.78-9.23-2.29-12.58C25.24,42.51,40.79,39.91,52.36,44.78z"/>
		</g>
	</g>
	<linearGradient id="SVGID_2_" gradientUnits="userSpaceOnUse" x1="38.3429" y1="64.2337" x2="40.5745" y2="90.0566">
		<stop  offset="0" style="stop-color:#312625;stop-opacity:0.5"/>
		<stop  offset="0.9947" style="stop-color:#312625;stop-opacity:0"/>
	</linearGradient>
	<path class="st6" d="M58.6,94.04l-1.63-21.5c-3.17,3.73-5.7,8-7.41,12.59c-7.27-3.77-13.63-9.28-18.4-15.94
		c1.79,4.8,3.59,9.59,5.38,14.39c-4.65-5.46-11.99-20.2-16.64-25.66l5.65,20.19l-2.46,16.58C23.09,94.69,44.9,102.98,58.6,94.04z"/>
	<path class="st4" d="M44.33,41.6c0,0,2.72-0.12,3.21,0.19c0.49,0.3,1.73,3.87,1.98,4.43c0.25,0.56-3.3,3.88-3.3,3.88
		s2.93,4.81,2.81,5.19c-0.12,0.39-5.32,21.4-5.32,21.4S31.11,57.92,30.86,56.99c-0.26-0.93,1.21-5.76,1.21-5.76
		s-3.73-2.75-3.95-3.35c-0.23-0.6-0.7-4.43,0-4.92c0.43-0.3,2.94-0.86,2.94-0.86L44.33,41.6z"/>
	<path class="st1" d="M31.05,43.01L31.05,43.01c0,0,3.86,9.96,7.26,18.73c2.67,6.9,5.63-0.32,5.63-0.32l0.83-19.77
		c-0.18-0.01-0.57-0.06-0.75-0.07L31.05,43.01z"/>
	<linearGradient id="SVGID_3_" gradientUnits="userSpaceOnUse" x1="39.8404" y1="47.3923" x2="49.8016" y2="74.6011">
		<stop  offset="0" style="stop-color:#D0D4D8"/>
		<stop  offset="1" style="stop-color:#D0D4D8;stop-opacity:0"/>
	</linearGradient>
	<path class="st7" d="M43.8,47.96c0.77-0.18,0.81-2.6,0.81-2.6l0.15-3.66c-0.01-0.02-0.02-0.04-0.02-0.06
		c-0.19-0.02-0.55-0.06-0.73-0.07L32.06,42.9c0.04,0.14-0.44,1.14-0.35,1.42c0.69,2.04,2.92,4.97,3.37,5.04
		c0.53,0.08,1.86-1.45,2.04-1.95c0.27,0.25,0.74,0.99,1.02,1.24c0.15,3.56,0.02,8.24-0.04,12.57c2.07,5.34,4,10.32,4.83,12.47
		c0.15,0.2,0.3,0.39,0.45,0.57l0.45-10.58c-1.35-5.09-2.69-10.19-4.04-15.28c0.43-0.59,0.98-1.02,1.41-1.61
		C41.91,47.48,42.8,47.96,43.8,47.96z"/>
	<g id="XMLID_4519_">
		<g id="XMLID_4520_">
			<path class="st0" d="M41.03,43.59c-1.16,0.67-3.55,1.02-4.85,1.05c-1.93,0.05-1.16-1.08-1.8-1.25l-6.27-14.48l11.34,5.11
				l0.03,0.48L41.03,43.59z"/>
		</g>
	</g>
	<g id="XMLID_4515_">
		<g>
			<g id="XMLID_9_">
				<path class="st8" d="M37.92,39.08c-1.24-0.15-2.35-0.5-3.48-1.02c-1.07-0.49-2.11-1.05-3.09-1.69l-3.23-7.47l11.34,5.11
					l0.03,0.48l0.82,4.8C39.51,39.22,38.71,39.18,37.92,39.08z"/>
			</g>
		</g>
	</g>
	<path class="st9" d="M43.93,61.42l-4.04-13.63l1.77-1.98l-3-1.84l-2.29,2.12l2.14,1.89c0,0-0.51,6.32-0.2,13.76
		c2.67,6.9,5.06,13.06,5.06,13.06L43.93,61.42z"/>
	<g id="XMLID_4513_">
		<g id="XMLID_4514_">
			<path class="st1" d="M32.79,39.72c0,0,4.56,4.37,5.73,4.18c1.17-0.19,1.78-4.59,1.78-4.59s4.17,1.2,4.67,1.78
				c0.51,0.58-0.74,6.28-1.28,6.56c-1.15,0.58-4.63-3.3-5.26-2.8c-0.63,0.49-2.42,3.81-3.01,3.74c-0.59-0.07-5.29-4.7-5.02-6.4
				C30.66,40.48,32.79,39.72,32.79,39.72z"/>
		</g>
	</g>
	<path class="st0" d="M24.02,21.2c0,0-3.92-0.89-3.38,3.78c0.54,4.68,3.93,4.77,4.93,4.97c0,0,1.86,8.33,12.14,7.53
		c10.28-0.8,8.59-8.75,8.52-14.03c-0.08-5.28,0.51-14.44-6.21-15.11C33.24,7.67,23.43,8.11,24.02,21.2z"/>
	<g>
		<path class="st10" d="M40.65,30.09c0.04,0.08-0.22,0.32-0.74,0.53c-0.26,0.11-0.58,0.19-0.95,0.25c-0.37,0.05-0.78,0.06-1.21,0
			c-0.43-0.06-0.82-0.17-1.17-0.3c-0.34-0.14-0.64-0.31-0.86-0.48c-0.46-0.34-0.63-0.63-0.58-0.7c0.06-0.08,0.37,0.08,0.83,0.27
			c0.23,0.1,0.51,0.2,0.83,0.3c0.32,0.09,0.67,0.17,1.04,0.22c0.37,0.04,0.73,0.05,1.06,0.05c0.33-0.01,0.62-0.04,0.87-0.08
			C40.28,30.07,40.61,29.99,40.65,30.09z"/>
	</g>
	<g>
		<path class="st8" d="M38.92,28.57c-0.01-0.1,0.33-0.19,0.51-0.63c0.09-0.22,0.13-0.47,0.06-0.78c-0.06-0.31-0.21-0.65-0.39-1.04
			c-0.72-1.56-1.16-2.89-0.98-2.97c0.18-0.08,0.9,1.12,1.62,2.68c0.18,0.39,0.35,0.81,0.39,1.24c0.02,0.22,0.01,0.42-0.04,0.62
			c-0.05,0.2-0.14,0.36-0.24,0.5c-0.2,0.27-0.46,0.41-0.64,0.44C39.02,28.67,38.92,28.62,38.92,28.57z"/>
	</g>
	<g>
		<path class="st2" d="M35.93,20.22c-0.06,0.08-0.35-0.03-0.81-0.15c-0.46-0.12-1.08-0.24-1.79-0.17c-0.68,0.07-1.29,0.3-1.71,0.51
			c-0.21,0.11-0.39,0.19-0.51,0.26c-0.13,0.06-0.22,0.09-0.25,0.05c-0.03-0.03-0.01-0.12,0.06-0.25c0.08-0.13,0.22-0.3,0.42-0.47
			c0.41-0.35,1.08-0.71,1.93-0.79c0.82-0.08,1.58,0.15,2.03,0.41C35.78,19.88,35.98,20.15,35.93,20.22z"/>
	</g>
	<g>
		<path class="st2" d="M39.9,20.05c-0.07-0.06,0.08-0.37,0.49-0.72c0.4-0.35,1.1-0.71,1.92-0.79c0.85-0.08,1.59,0.15,2.05,0.41
			c0.23,0.13,0.4,0.27,0.51,0.38c0.1,0.11,0.14,0.19,0.11,0.23c-0.03,0.04-0.12,0.03-0.26,0c-0.13-0.04-0.32-0.09-0.55-0.15
			c-0.45-0.12-1.1-0.24-1.78-0.17c-0.71,0.07-1.3,0.3-1.73,0.51C40.24,19.95,39.97,20.12,39.9,20.05z"/>
	</g>
	
		<radialGradient id="SVGID_4_" cx="-1698.9084" cy="109.7706" r="2.7562" gradientTransform="matrix(-0.999 0.0455 0.0455 0.999 -1670.9684 -3.3208)" gradientUnits="userSpaceOnUse">
		<stop  offset="0" style="stop-color:#F79E7D;stop-opacity:0.7"/>
		<stop  offset="1" style="stop-color:#F79E7D;stop-opacity:0"/>
	</radialGradient>
	<path class="st11" d="M33.99,28.91c0.07,1.52-1.11,2.81-2.63,2.88c-1.52,0.07-2.81-1.11-2.88-2.63c-0.07-1.52,1.11-2.81,2.63-2.88
		C32.63,26.22,33.92,27.39,33.99,28.91z"/>
	
		<radialGradient id="SVGID_5_" cx="-1711.3877" cy="109.771" r="2.7561" gradientTransform="matrix(-0.999 0.0455 0.0455 0.999 -1670.9684 -3.3208)" gradientUnits="userSpaceOnUse">
		<stop  offset="0" style="stop-color:#F79E7D;stop-opacity:0.7"/>
		<stop  offset="1" style="stop-color:#F79E7D;stop-opacity:0"/>
	</radialGradient>
	<path class="st12" d="M46.46,28.35c0.07,1.52-1.11,2.81-2.63,2.88c-1.52,0.07-2.81-1.11-2.88-2.63c-0.07-1.52,1.11-2.81,2.63-2.88
		C45.1,25.65,46.39,26.83,46.46,28.35z"/>
	<path class="st2" d="M34.95,23.56c0.03,0.76-0.55,1.41-1.32,1.44c-0.76,0.03-1.41-0.55-1.44-1.32c-0.03-0.76,0.55-1.41,1.32-1.44
		C34.27,22.21,34.92,22.8,34.95,23.56z"/>
	<path class="st2" d="M42.81,23.2c0.03,0.76-0.55,1.41-1.32,1.44c-0.76,0.03-1.41-0.55-1.44-1.32c-0.03-0.76,0.55-1.41,1.32-1.44
		C42.13,21.85,42.78,22.44,42.81,23.2z"/>
	
		<linearGradient id="SVGID_6_" gradientUnits="userSpaceOnUse" x1="-1606.8176" y1="25.761" x2="-1604.7574" y2="24.6073" gradientTransform="matrix(-1 0 0 1 -1582.3676 0)">
		<stop  offset="0" style="stop-color:#F79E7D"/>
		<stop  offset="1" style="stop-color:#F79E7D;stop-opacity:0.6"/>
	</linearGradient>
	<path class="st13" d="M21.99,23.29c-0.36,1.24,0.15,2.54,0.65,3.73c0.15,0.35,0.31,0.73,0.63,0.94c0.32,0.22,0.83,0.18,1-0.16
		c0.16-0.33-0.08-0.71-0.26-1.03c-0.19-0.32-0.29-0.8,0.02-1c0.15-0.09,0.33-0.09,0.49-0.17c0.33-0.18,0.33-0.65,0.24-1.01
		c-0.12-0.51-0.31-0.99-0.56-1.45c-0.25-0.45-0.64-0.9-1.14-0.89C22.52,22.25,22.14,22.78,21.99,23.29z"/>
	<path class="st4" d="M34.71,181.94c-2.23-2.1-4.2-0.33-4.2-0.33l-0.85-0.48c-1.23,1.84-3.58,4.04-3.88,5.12
		c-0.56,2.05,0.44,4.43,3.73,4.43c3.21,0,6.31-1.96,6.66-3.56c0.21-0.96-0.13-3.54-0.24-5.46L34.71,181.94z"/>
	<g>
		
			<linearGradient id="SVGID_7_" gradientUnits="userSpaceOnUse" x1="-1301.124" y1="127.2391" x2="-1302.2366" y2="183.6047" gradientTransform="matrix(-1 0 0 1 -1247.3835 0)">
			<stop  offset="0" style="stop-color:#312625;stop-opacity:0.5"/>
			<stop  offset="0.9947" style="stop-color:#312625;stop-opacity:0"/>
		</linearGradient>
		<path class="st14" d="M46.01,129.94l-0.15-0.79c1.66,5.81,3.98,13.66,4.4,13.68c0.66,0.03,7.25-1.02,7.54-1.89
			c0.13-0.39,0.68-6.3,1.25-12.74c0.68,9.08,3.64,50.85,3.64,50.85c-4.36,1.7-9.06,0.39-9.06,0.39L46.01,129.94z"/>
		
			<linearGradient id="SVGID_8_" gradientUnits="userSpaceOnUse" x1="-1279.8915" y1="127.6582" x2="-1281.0039" y2="184.0238" gradientTransform="matrix(-1 0 0 1 -1247.3835 0)">
			<stop  offset="0" style="stop-color:#312625;stop-opacity:0.5"/>
			<stop  offset="0.9947" style="stop-color:#312625;stop-opacity:0"/>
		</linearGradient>
		<path class="st15" d="M27.9,178.02c0,0,0-0.04,0-0.09c0-0.01,0-0.03,0-0.04c0-0.04,0-0.1-0.01-0.16
			c-0.01-0.18-0.02-0.45-0.03-0.79c0-0.08-0.01-0.16-0.01-0.25c-0.01-0.16-0.01-0.32-0.02-0.5c0-0.07-0.01-0.14-0.01-0.21
			c-0.02-0.4-0.04-0.85-0.06-1.35c0-0.08-0.01-0.16-0.01-0.25c-0.01-0.28-0.03-0.58-0.04-0.89c0-0.01,0-0.01,0-0.02
			c-0.01-0.33-0.03-0.67-0.05-1.03c0-0.06-0.01-0.11-0.01-0.17c-0.04-0.88-0.08-1.83-0.13-2.85c0-0.1-0.01-0.2-0.01-0.3
			c-0.08-1.74-0.17-3.66-0.26-5.67c0-0.03,0-0.07,0-0.1c-0.04-0.75-0.07-1.52-0.11-2.3c0-0.03,0-0.05,0-0.08
			c-0.3-6.43-0.65-13.48-0.95-18.83c0-0.01,0-0.01,0-0.02c-0.08-1.34-0.15-2.57-0.22-3.66c1.34,0.97,3.62,2.51,4.54,2.48
			c1.35-0.04,5.9-3.75,6.17-5.4c0.21-1.32,1.76-13.69,2.38-18.6c-0.16,8.67-0.33,18.19-0.34,18.1c0-0.01,0,0.05,0,0.17
			c0,0.02,0,0.05,0,0.08c-0.01,0.49-0.03,1.68-0.06,3.37c0,0.1,0,0.2-0.01,0.3c-0.01,0.61-0.02,1.29-0.03,2.01
			c0,0.24-0.01,0.49-0.01,0.74c-0.02,1.01-0.04,2.1-0.05,3.26c0,0.14,0,0.29-0.01,0.44c-0.21,12.77-0.54,32.78-0.54,32.78
			c-0.79,0.4-1.64,0.64-2.5,0.78c-0.29,0.04-0.57,0.08-0.86,0.1c-0.29,0.02-0.57,0.03-0.85,0.03c-0.28,0-0.56-0.01-0.84-0.02
			c-0.28-0.02-0.55-0.04-0.81-0.07c-0.26-0.03-0.52-0.06-0.77-0.1c-0.37-0.06-0.73-0.13-1.06-0.2c-0.22-0.05-0.43-0.1-0.63-0.15
			C28.6,178.3,27.9,178.03,27.9,178.02L27.9,178.02z"/>
	</g>
	<g>
		<path class="st2" d="M24.02,21.2c0,0,1.61,1.19,2.05,3.81h1.18v-4.53c0,0,3.58-0.99,2.23-6.25c-1.36-5.27-6.7-0.04-6.7-0.04
			L24.02,21.2z"/>
	</g>
	<path class="st0" d="M17.37,90.67c0.62-1.3,1.29-2.58,2.04-3.82c0.46,0.35,0.9,0.68,1.29,0.97c1.39,1.04,2.34,1.75,2.52,1.85
		c0.87,0.49,4.39,0.34,4.58,2.67c0,0,1.01,1.15,1.86,2.25c0.85,1.1-2.29,1.23-2.32,2.57c-0.02,1.34-2.29,0.71-2.62,2.08
		c-0.33,1.37-0.39,1.25-1.53,1.29c-1.14,0.04-2.28-0.82-2.46-2.75c0,0-2.36-0.07-2.89-2.16c-0.02-0.07-0.03-0.13-0.04-0.2
		C17.54,93.76,19.15,92.02,17.37,90.67z"/>
	<path class="st1" d="M15.27,90.13l1.36,1.44c0,0,2.84-1.57,4.32-4.72l-1.52-1.91L15.27,90.13z"/>
	<path class="st2" d="M14.9,91.29c3.08-1.86,5.81-6.3,5.81-6.3l-8.28-12.61l9.15-11.74l-3.4-12.85
		c-5.5,4.57-17.86,21.31-18.23,25.78C-0.19,75.16,14.9,91.29,14.9,91.29z"/>
	<path class="st2" d="M34.25,12.89c0,0-3.83,2.76-8.62,0.59c-4.8-2.17-4.77-5.38-4.77-5.38s4.2-0.17,7.04-3.33
		c2.85-3.16,11.15-6.37,17.41-2.02c6.26,4.34,4.29,10.71,0.54,11.79c-3.75,1.08-5.87-1.53-6.82-0.95
		C38.08,14.16,36.59,14.78,34.25,12.89z"/>
	<linearGradient id="SVGID_9_" gradientUnits="userSpaceOnUse" x1="35.1807" y1="14.9123" x2="33.4657" y2="6.476">
		<stop  offset="0" style="stop-color:#F7E7D8;stop-opacity:0.2"/>
		<stop  offset="1" style="stop-color:#F7E7D8;stop-opacity:0"/>
	</linearGradient>
	<path class="st16" d="M47.63,4.86c-0.38-0.47-0.84-0.94-1.38-1.39c-7.25,4.7-15.97,7.12-24.61,6.83c0.16,0.25,0.35,0.5,0.58,0.77
		c-0.73,0.36-1.45,0.83-2.06,1.28c3.55,0.86,7.26,1.08,10.88,0.59C37.25,12.11,43.15,9.22,47.63,4.86z"/>
</g>
</svg>
